<svg width="399" height="353" viewBox="0 0 399 353" fill="none" xmlns="http://www.w3.org/2000/svg">
<path d="M311.244 352.635C359.71 352.635 399 349.678 399 346.031C399 342.384 359.71 339.428 311.244 339.428C262.778 339.428 223.489 342.384 223.489 346.031C223.489 349.678 262.778 352.635 311.244 352.635Z" fill="#006579"/>
<path d="M89.3846 118.456C89.4128 111.735 83.6843 106.237 76.9602 106.237H14.5653C7.94756 106.237 2.22984 111.644 2.15236 118.258C2.12835 120.138 2.54147 121.998 3.35916 123.691C4.17686 125.384 5.37677 126.864 6.86434 128.015C7.24566 128.299 7.54573 128.678 7.73456 129.114C7.9234 129.55 7.99439 130.028 7.94043 130.501C7.86805 131.037 7.83176 131.577 7.8318 132.118V175.257C7.8318 176.845 8.14471 178.417 8.75264 179.884C9.36057 181.351 10.2516 182.684 11.3749 183.807C12.4982 184.93 13.8318 185.82 15.2995 186.428C16.7672 187.036 18.3402 187.348 19.9288 187.348H71.2017C74.41 187.348 77.4869 186.074 79.7556 183.807C82.0242 181.539 83.2987 178.464 83.2987 175.257V132.118C83.2988 131.644 83.2712 131.171 83.2161 130.701C83.1673 130.236 83.2439 129.766 83.438 129.34C83.6321 128.914 83.9367 128.548 84.32 128.28C85.8813 127.159 87.1543 125.685 88.0347 123.977C88.9152 122.269 89.3778 120.377 89.3846 118.456Z" fill="#3F3D56"/>
<path d="M86.6825 117.272C86.3713 114.932 85.2149 112.787 83.4311 111.24C81.6473 109.693 79.3591 108.851 76.9975 108.873H14.5467C12.339 108.853 10.1906 109.587 8.45626 110.952C6.72196 112.318 5.5055 114.234 5.00779 116.384C4.58164 118.36 4.79402 120.42 5.61433 122.268C6.43463 124.115 7.82051 125.655 9.57232 126.665C10.078 126.954 10.4733 127.403 10.6958 127.941C10.9184 128.479 10.9556 129.076 10.8017 129.638C10.5801 130.446 10.4682 131.281 10.469 132.12V175.255C10.4693 177.459 11.2397 179.594 12.6472 181.291C14.0547 182.988 16.0109 184.141 18.178 184.55C18.756 184.658 19.3428 184.712 19.9308 184.712H71.2036C72.0693 184.714 72.9309 184.595 73.7638 184.359C75.7487 183.801 77.4967 182.61 78.7418 180.967C79.9869 179.324 80.661 177.32 80.6613 175.259V132.116C80.6615 131.33 80.5633 130.548 80.3692 129.788C80.3163 129.577 80.2891 129.36 80.2881 129.143C80.2885 128.666 80.4185 128.198 80.6644 127.79C80.9102 127.381 81.2626 127.047 81.6838 126.823L81.6879 126.819C83.387 125.917 84.7735 124.523 85.6649 122.819C86.5564 121.115 86.9111 119.181 86.6825 117.272Z" fill="#308FA2"/>
<path opacity="0.2" d="M80.6614 136.248V132.193H73.7639V108.873H69.7065V132.193H47.9997V108.873H43.9423V132.193H22.2354V108.873H18.1781V132.193H10.4691V136.248H18.178V148.415H10.4691V152.47H18.178V164.637H10.4691V168.693H18.178V184.55C18.7561 184.658 19.3428 184.712 19.9308 184.712H22.2354V168.693H43.9423V184.712H47.9996V168.693H69.7065V184.712H71.2037C72.0693 184.713 72.9309 184.595 73.7639 184.359V168.693H80.6614V164.637H73.7639V152.47H80.6614V148.415H73.7639V136.248H80.6614ZM22.2354 136.248H43.9423V148.415H22.2354V136.248ZM22.2354 164.637V152.47H43.9423V164.637H22.2354ZM69.7066 164.637H47.9997V152.47H69.7066V164.637ZM69.7066 148.415H47.9997V136.248H69.7066V148.415Z" fill="black"/>
<path d="M89.1003 16C89.1003 21.688 87.9795 27.3202 85.8018 32.5752C83.6242 37.8302 80.4323 42.605 76.4086 46.627C72.3848 50.649 67.6079 53.8394 62.3506 56.0161C57.0933 58.1928 51.4585 59.3131 45.768 59.3131C40.0776 59.3131 34.4428 58.1928 29.1855 56.0161C23.9282 53.8394 19.1513 50.649 15.1275 46.627C11.1037 42.605 7.91191 37.8302 5.73426 32.5752C3.55661 27.3202 2.43579 21.688 2.43579 16H89.1003Z" fill="#308FA2"/>
<path d="M18.3329 23.6886C18.3329 24.821 17.9311 25.739 17.4355 25.739C16.9399 25.739 16.5381 24.821 16.5381 23.6886C16.5926 22.9224 16.9095 22.1983 17.4355 21.6383C17.9615 22.1983 18.2784 22.9224 18.3329 23.6886Z" fill="#3F3D56"/>
<path d="M63.7163 30.8649C63.7163 31.9973 63.3145 32.9152 62.8189 32.9152C62.3233 32.9152 61.9215 31.9973 61.9215 30.8649C61.976 30.0987 62.2929 29.3746 62.8189 28.8146C63.3449 29.3746 63.6619 30.0987 63.7163 30.8649Z" fill="#3F3D56"/>
<path d="M30.3838 26.7642C30.3838 27.8966 29.982 28.8145 29.4864 28.8145C28.9908 28.8145 28.589 27.8966 28.589 26.7642C28.6435 25.998 28.9604 25.2739 29.4864 24.7139C30.0124 25.2739 30.3294 25.998 30.3838 26.7642Z" fill="#3F3D56"/>
<path d="M48.3322 42.9104C48.3322 44.0428 47.9304 44.9608 47.4348 44.9608C46.9391 44.9608 46.5374 44.0428 46.5374 42.9104C46.5918 42.1442 46.9087 41.4201 47.4348 40.8601C47.9608 41.4201 48.2777 42.1442 48.3322 42.9104Z" fill="#3F3D56"/>
<path d="M29.102 40.8601C29.102 41.9925 28.7002 42.9105 28.2045 42.9105C27.7089 42.9105 27.3071 41.9925 27.3071 40.8601C27.3616 40.0939 27.6785 39.3698 28.2045 38.8098C28.7306 39.3698 29.0475 40.0939 29.102 40.8601Z" fill="#3F3D56"/>
<path d="M73.9726 21.6385C73.9726 22.7708 73.5708 23.6888 73.0751 23.6888C72.5795 23.6888 72.1777 22.7708 72.1777 21.6385C72.2322 20.8722 72.5491 20.1482 73.0751 19.5881C73.6012 20.1482 73.9181 20.8722 73.9726 21.6385Z" fill="#3F3D56"/>
<path d="M57.5628 47.011C57.5628 48.1434 57.161 49.0613 56.6654 49.0613C56.1697 49.0613 55.7679 48.1434 55.7679 47.011C55.8224 46.2448 56.1393 45.5207 56.6654 44.9607C57.1914 45.5207 57.5083 46.2448 57.5628 47.011Z" fill="#3F3D56"/>
<path d="M45.7681 61.7478C33.6339 61.7341 22.0005 56.9099 13.4203 48.3334C4.84012 39.757 0.0137349 28.1289 0 16H4.87164C4.87164 21.3682 5.92946 26.6839 7.98469 31.6435C10.0399 36.603 13.0523 41.1094 16.8499 44.9053C20.6475 48.7012 25.1559 51.7123 30.1177 53.7666C35.0794 55.821 40.3975 56.8783 45.7681 56.8783C51.1387 56.8783 56.4567 55.821 61.4184 53.7666C66.3802 51.7123 70.8886 48.7012 74.6862 44.9053C78.4838 41.1094 81.4962 36.603 83.5514 31.6435C85.6067 26.6839 86.6645 21.3682 86.6645 16H91.5361C91.5224 28.1289 86.696 39.757 78.1158 48.3334C69.5356 56.9098 57.9023 61.7341 45.7681 61.7478Z" fill="#3F3D56"/>
<path d="M132.343 29H118V43.3368H132.343V29Z" fill="#3F3D56"/>
<path d="M256.753 36.5111H141.291V37.9448H256.753V36.5111Z" fill="#3F3D56"/>
<path d="M132.343 136.919H118V151.255H132.343V136.919Z" fill="#3F3D56"/>
<path d="M256.753 144.43H141.291V145.863H256.753V144.43Z" fill="#3F3D56"/>
<path d="M132.343 244.087H118V258.424H132.343V244.087Z" fill="#3F3D56"/>
<path d="M256.753 251.598H141.291V253.032H256.753V251.598Z" fill="#3F3D56"/>
<path d="M302.089 79.0884L283.767 93.5235L244.944 79.885C244.944 79.885 231.743 65.0441 224.279 76.0979C221.722 79.8836 238.467 86.8775 240.047 87.5275C243.996 89.1524 281.827 109.898 285.534 107.176C289.241 104.455 310.099 90.6885 310.099 90.6885L302.089 79.0884Z" fill="#A0616A"/>
<path d="M364.632 54.464C347.267 47.9782 330.749 44.9095 317.356 54.464V23.6277C317.356 20.5249 317.967 17.4524 319.155 14.5858C320.343 11.7191 322.084 9.11443 324.279 6.9204C326.474 4.72636 329.08 2.98596 331.948 1.79856C334.816 0.611157 337.89 0 340.994 0C344.098 0 347.172 0.611155 350.04 1.79856C352.908 2.98597 355.514 4.72638 357.709 6.92042C359.904 9.11446 361.645 11.7192 362.833 14.5858C364.021 17.4525 364.632 20.5249 364.632 23.6278L364.632 54.464Z" fill="#2F2E41"/>
<path d="M321 121.826L319.581 131.754C319.581 131.754 316.033 142.392 319.581 162.248L262.468 317.909L304.682 329.965L325.611 244.866L355.054 179.977L352.217 253.73L337.318 332.447L381.305 330.674L394.123 195.698C396.196 174.367 392.494 152.87 383.405 133.459C379.849 125.911 376.026 119.962 372.557 119.098C362.149 116.507 321 121.826 321 121.826Z" fill="#2F2E41"/>
<path d="M267.789 316.845L253.245 332.447C253.245 332.447 225.22 346.985 245.086 348.758C264.951 350.531 271.691 342.73 271.691 342.73C271.691 342.73 296.523 340.957 296.168 337.411C295.813 333.865 294.039 322.164 294.039 322.164L267.789 316.845Z" fill="#2F2E41"/>
<path d="M346.718 320.607V331.599C346.718 331.599 347.073 336.209 346.718 337.273C346.363 338.336 341.042 351.456 358.779 348.619C376.516 345.783 369.421 334.791 369.421 334.791L365.164 318.834L346.718 320.607Z" fill="#2F2E41"/>
<path d="M340.776 45.2367C350.621 45.2367 358.602 37.2594 358.602 27.419C358.602 17.5786 350.621 9.60132 340.776 9.60132C330.931 9.60132 322.951 17.5786 322.951 27.419C322.951 37.2594 330.931 45.2367 340.776 45.2367Z" fill="#A0616A"/>
<path d="M353.103 37.2587C353.103 37.2587 350.62 60.661 353.103 64.916C355.586 69.1709 327.917 60.661 327.917 60.661C327.917 60.661 333.947 44.7049 331.819 38.3224C329.691 31.9399 353.103 37.2587 353.103 37.2587Z" fill="#A0616A"/>
<path d="M367.293 104.629L372.969 120.231L320.113 126.258C320.113 126.258 314.437 125.195 314.437 120.585C314.437 115.976 308.406 99.6648 308.406 99.6648C308.406 99.6648 293.637 87.6991 286.542 84.5078C283.97 83.3519 287.817 83.8292 289.981 78.9219C290.631 77.4468 291.407 75.8902 292.255 74.3123C292.947 73.0181 293.692 71.7061 294.455 70.4119C295.38 68.834 296.335 67.281 297.261 65.8024C300.063 61.3311 302.621 57.5725 303.44 56.0514C305.923 51.4418 329.269 51.0305 329.269 51.0305C335.945 55.2288 355.232 56.0514 355.232 56.0514C355.232 56.0514 368.499 61.6006 374.026 65.8024C374.427 66.1038 367.293 104.629 367.293 104.629Z" fill="#FF6884"/>
<path d="M355.818 6.02954V5.60643L355.315 5.63439C352.457 3.45902 349.141 1.96278 345.618 1.25919C342.096 0.555596 338.459 0.663124 334.984 1.57361C338.315 2.45348 341.412 4.05305 344.058 6.2595L326.971 7.20831L319.76 23.2271H324.64L328.574 16.0186V23.2271H345.081L346.202 17.6205L349.319 23.2271H352.562C352.582 23.6269 352.613 24.0238 352.613 24.4285L349.408 55.2648L364.632 48.8573V24.4285C364.635 20.8977 363.844 17.4114 362.319 14.2269C360.793 11.0424 358.572 8.24099 355.818 6.02954Z" fill="#2F2E41"/>
<path d="M379.709 87.6091L378.644 115.621L375.806 169.872C375.806 169.872 379.709 193.274 369.776 192.92C359.843 192.565 367.293 165.262 367.293 165.262L364.455 122.358L367.293 92.2187L379.709 87.6091Z" fill="#A0616A"/>
<path d="M382.547 102.856C382.547 106.047 364.632 105.161 364.632 105.161L355.232 56.0514C355.232 56.0514 368.499 61.6006 374.026 65.8024C375.327 67.151 376.39 68.7094 377.172 70.4119C377.595 71.5501 377.995 72.8692 378.375 74.3123C378.751 75.7448 379.102 77.3014 379.432 78.9219C380.98 86.8253 382.021 94.8197 382.547 102.856Z" fill="#FF6884"/>
<path d="M45.2856 252.143L18.1326 249.333C18.3412 247.892 18.181 246.422 17.667 245.059C17.1529 243.696 16.3018 242.486 15.193 241.542C14.0842 240.597 12.754 239.949 11.3267 239.657C9.89928 239.366 8.42129 239.441 7.03072 239.875C5.64014 240.309 4.38235 241.089 3.37485 242.141C2.36734 243.192 1.64297 244.482 1.26941 245.89C0.895838 247.297 0.885265 248.777 1.23866 250.189C1.59205 251.602 2.29788 252.902 3.29024 253.968C2.28199 255.057 1.57182 256.387 1.22844 257.83C0.885048 259.273 0.920054 260.781 1.33007 262.206C1.74009 263.632 2.51124 264.928 3.56894 265.969C4.62664 267.009 5.9351 267.759 7.36775 268.146C8.80039 268.534 10.3088 268.545 11.7469 268.179C13.1851 267.812 14.5044 267.082 15.5773 266.057C16.6502 265.032 17.4403 263.747 17.8712 262.328C18.3021 260.908 18.3592 259.402 18.037 257.954L45.2856 255.45V252.143Z" fill="#003742"/>
<path d="M72.8974 270.797C83.5718 273.421 94.3251 265.853 94.8816 254.88C94.897 254.576 94.9047 254.269 94.9048 253.961C94.9049 253.653 94.8971 253.347 94.8816 253.042C94.325 242.069 83.5718 234.501 72.8974 237.125L36.685 246.026C35.6418 246.025 34.6086 246.229 33.6446 246.628C32.6805 247.026 31.8044 247.61 31.0664 248.347C30.3284 249.084 29.7429 249.959 29.3435 250.923C28.944 251.886 28.7384 252.918 28.7384 253.961C28.7384 255.004 28.944 256.036 29.3435 257C29.7429 257.963 30.3284 258.838 31.0664 259.575C31.8044 260.312 32.6805 260.896 33.6446 261.295C34.6086 261.693 35.6418 261.898 36.685 261.897L72.8974 270.797Z" fill="#308FA2"/>
</svg>
