<svg width="248" height="226" viewBox="0 0 248 226" fill="none" xmlns="http://www.w3.org/2000/svg">
<g clip-path="url(#clip0_26_20)">
<path d="M47.9499 46.2944C60.7529 46.2944 71.1318 35.931 71.1318 23.1472C71.1318 10.3633 60.7529 0 47.9499 0C35.1469 0 24.768 10.3633 24.768 23.1472C24.768 35.931 35.1469 46.2944 47.9499 46.2944Z" fill="#FF6884"/>
<path d="M120.144 48.0226C119.379 46.7345 116.069 48.1137 115.461 46.9447C114.855 45.7799 117.93 44.0052 119.687 39.9509C120.003 39.2198 122 34.6124 120.522 33.1907C117.72 30.4959 104.9 41.6166 100.414 37.9774C99.4294 37.1787 98.7416 35.5844 95.7617 32.9958C94.5762 31.966 93.8594 31.501 93.1656 31.674C92.1812 31.9195 92.1032 33.235 91.0476 35.8216C89.4646 39.7006 88.5283 39.4664 87.606 42.5613C86.9213 44.8587 87.0777 46.1945 86.272 46.4547C85.1318 46.8229 84.0824 44.3861 82.6375 44.6042C81.163 44.8269 80.2715 47.6643 79.99 49.7886C79.4616 53.7752 80.9278 56.4058 81.7405 59.1718C82.6236 62.1779 83.1478 66.7494 81.1083 73.221L60.922 130.011C65.3785 118.358 78.2822 86.4134 83.7044 74.5427C85.2696 71.1159 86.9979 67.64 90.5466 66.2682C93.9632 64.9474 98.6554 65.736 104.637 64.297C105.336 64.129 107.275 63.6365 107.519 62.4979C107.72 61.5566 106.58 61.0311 106.755 60.1495C106.99 58.9669 109.233 58.9524 111.989 57.5881C113.932 56.626 115.142 55.4819 116.183 54.498C116.497 54.2013 121.163 49.7373 120.144 48.0226Z" fill="#DAFBFF"/>
<path d="M40.7254 77.9192C39.8715 77.9225 39.5945 79.9424 38.8444 79.9033C38.0969 79.8644 38.1118 77.8453 36.6258 75.8145C36.3579 75.4483 34.6692 73.1404 33.5439 73.4546C31.411 74.05 33.1783 83.5414 30.095 84.69C29.4183 84.9421 28.4361 84.8192 26.304 85.5327C25.4557 85.8166 25.0204 86.0337 24.9052 86.4236C24.7418 86.9768 25.3659 87.3947 26.3328 88.6582C27.7828 90.5533 27.3975 90.9445 28.6526 92.2895C29.5843 93.288 30.286 93.5967 30.1814 94.0666C30.0335 94.7316 28.5329 94.5428 28.2232 95.3139C27.9072 96.1008 29.0447 97.3563 30.0077 98.1072C31.8148 99.5164 33.5309 99.5568 35.125 99.9567C36.8574 100.391 39.2557 101.453 41.8483 104.32L63.9385 130.599C59.4964 125.052 47.5176 109.512 43.2471 103.429C42.0143 101.673 40.8044 99.8235 41.154 97.6886C41.4906 95.6331 43.2321 93.5611 44.2507 90.2143C44.3697 89.8235 44.687 88.7313 44.1978 88.2831C43.7933 87.9127 43.206 88.32 42.8232 87.9797C42.3097 87.5233 42.9496 86.4201 43.0741 84.676C43.1619 83.4461 42.9488 82.5227 42.7655 81.7286C42.7102 81.4892 41.8621 77.9148 40.7254 77.9192Z" fill="#DAFBFF"/>
<path d="M57.7606 81.7376L57.2461 77.152L57.4811 76.8044C58.5688 75.1969 59.1232 73.627 59.1299 72.1369C59.131 71.9 59.1199 71.663 59.1088 71.4217C59.0644 70.4652 59.009 69.2761 59.6299 67.8901C59.9781 67.1173 60.956 65.3282 62.4262 65.5497C62.822 65.605 63.1214 65.7866 63.3487 65.9991C63.382 65.946 63.4163 65.8928 63.4529 65.8353C63.9108 65.1378 64.2734 64.8389 64.6226 64.551C64.891 64.3296 65.1682 64.1016 65.6028 63.5613C65.7935 63.3244 65.9421 63.1162 66.0674 62.9413C66.4477 62.4121 66.9444 61.7811 67.8203 61.7921C68.7561 61.8364 69.2462 62.6092 69.571 63.1207C70.1509 64.0329 70.4137 64.6905 70.5877 65.1267C70.651 65.2861 70.723 65.4655 70.7596 65.5208C71.0612 65.9637 73.5127 65.5496 74.4362 65.399C76.5107 65.0536 78.3058 64.7547 79.0454 66.0611C79.5754 66.9955 79.1818 68.231 77.8401 69.8319C77.4221 70.3301 76.9775 70.7087 76.5828 71.0054C76.9099 71.2003 77.2026 71.4992 77.3212 71.9686C77.6007 73.0801 76.6438 74.1939 74.4784 75.2833C73.9406 75.5556 73.2166 75.9187 72.2021 76.0937C71.7242 76.1756 71.294 76.1955 70.9259 76.2066C70.9182 76.4192 70.8683 76.6494 70.7386 76.8863C70.3583 77.5838 69.5666 77.9159 68.3736 77.8362C67.0608 77.7676 65.9798 77.5174 65.0262 77.2982C64.1936 77.1078 63.4762 76.9461 62.913 76.9838C61.8685 77.0679 61.0635 77.9026 60.1189 78.9854L57.7606 81.7376Z" fill="#DAFBFF"/>
<path d="M60.147 54.4349L55.8352 56.095L55.4388 55.9561C53.6057 55.3133 51.9443 55.176 50.499 55.5476C50.2692 55.6066 50.0425 55.6774 49.8115 55.7494C48.8961 56.0348 47.7583 56.39 46.2581 56.1418C45.4212 56.0016 43.44 55.5109 43.2815 54.0347C43.2348 53.6384 43.3347 53.3032 43.483 53.0297C43.4231 53.0111 43.3629 52.9914 43.2978 52.9706C42.506 52.7053 42.1245 52.4309 41.757 52.1666C41.4745 51.9636 41.1832 51.7537 40.5496 51.4709C40.2717 51.3469 40.0324 51.2562 39.8312 51.1795C39.222 50.9464 38.4847 50.6267 38.2733 49.7779C38.0788 48.8628 38.7031 48.1935 39.1162 47.75C39.8529 46.9585 40.4233 46.5379 40.8017 46.2591C40.9401 46.1577 41.0955 46.0425 41.1399 45.9932C41.4924 45.5896 40.4695 43.3268 40.0894 42.473C39.2285 40.557 38.4836 38.899 39.5616 37.8534C40.3324 37.1045 41.6291 37.1712 43.5203 38.061C44.1089 38.3383 44.5885 38.6717 44.976 38.9777C45.0818 38.6124 45.2972 38.2538 45.7218 38.0202C46.7277 37.4684 48.0494 38.1101 49.654 39.9252C50.0542 40.3755 50.5897 40.9827 51.0164 41.9182C51.217 42.3589 51.3454 42.7694 51.4495 43.1221C51.6574 43.0757 51.8931 43.0655 52.1556 43.1307C52.9277 43.3211 53.4503 44.0014 53.6756 45.174C53.9421 46.4593 53.974 47.5669 54.0035 48.5435C54.0302 49.396 54.0556 50.1299 54.2349 50.6643C54.5814 51.6518 55.5942 52.2175 56.8827 52.8552L60.147 54.4349Z" fill="#DAFBFF"/>
<path d="M57.7606 40.9256L57.2461 36.34L57.4811 35.9924C58.5688 34.3849 59.1232 32.815 59.1299 31.3248C59.131 31.0879 59.1199 30.851 59.1088 30.6097C59.0644 29.6531 59.009 28.4641 59.6299 27.078C59.9781 26.3053 60.956 24.5162 62.4262 24.7376C62.822 24.793 63.1214 24.9745 63.3487 25.1871C63.382 25.134 63.4163 25.0808 63.4529 25.0232C63.9108 24.3258 64.2734 24.0269 64.6226 23.739C64.891 23.5176 65.1682 23.2896 65.6028 22.7493C65.7935 22.5124 65.9421 22.3042 66.0674 22.1293C66.4477 21.6001 66.9444 20.9691 67.8203 20.9801C68.7561 21.0244 69.2462 21.7972 69.571 22.3086C70.1509 23.2209 70.4137 23.8785 70.5877 24.3147C70.651 24.4741 70.723 24.6535 70.7596 24.7088C71.0612 25.1517 73.5127 24.7376 74.4362 24.587C76.5107 24.2416 78.3058 23.9427 79.0454 25.2491C79.5754 26.1835 79.1818 27.419 77.8401 29.0199C77.4221 29.5181 76.9775 29.8967 76.5828 30.1934C76.9099 30.3882 77.2026 30.6871 77.3212 31.1566C77.6007 32.2681 76.6438 33.3818 74.4784 34.4712C73.9406 34.7436 73.2166 35.1067 72.2021 35.2816C71.7242 35.3636 71.294 35.3835 70.9259 35.3946C70.9182 35.6071 70.8683 35.8374 70.7386 36.0743C70.3583 36.7718 69.5666 37.1039 68.3736 37.0242C67.0608 36.9556 65.9798 36.7054 65.0262 36.4862C64.1936 36.2958 63.4762 36.1341 62.913 36.1717C61.8685 36.2559 61.0635 37.0906 60.1189 38.1734L57.7606 40.9256Z" fill="#DAFBFF"/>
<path d="M62.4594 129.936L61.497 129.334L60.375 129.462C60.3572 129.358 60.2962 129.119 60.2042 128.745C59.702 126.694 58.1708 120.455 56.8935 110.628C56.002 103.769 55.4975 96.7164 55.3933 89.6642C55.2891 82.6009 55.624 77.2536 55.8923 72.9559C56.0952 69.7143 56.3413 66.6277 56.583 63.6208C57.2261 55.5877 57.8326 47.9997 57.3813 39.599C57.2815 37.7236 57.072 33.82 54.7879 29.6661C53.463 27.2571 51.638 25.1182 49.3628 23.3114L50.7776 21.5356C53.2889 23.5328 55.3079 25.902 56.7793 28.5768C59.3117 33.1823 59.5401 37.4358 59.6499 39.4795C60.1089 48.0285 59.4957 55.6896 58.846 63.8002C58.6065 66.796 58.3604 69.8693 58.1586 73.0976C57.8925 77.3555 57.561 82.6563 57.6641 89.6288C57.7661 96.5969 58.265 103.563 59.1443 110.336C60.406 120.039 61.9151 126.185 62.4107 128.205C62.6746 129.283 62.73 129.509 62.4594 129.936Z" fill="#DAFBFF"/>
<path d="M45.1983 26.9141C45.1052 26.9141 45.0109 26.9119 44.9156 26.9053C42.9819 26.8012 41.1913 25.6454 39.5924 23.4711C38.8429 22.4481 38.4593 21.2812 37.6942 18.9541C37.5756 18.5954 36.999 16.7753 36.6487 14.2711C36.4192 12.6348 36.448 11.9506 36.7729 11.3461C37.1332 10.673 37.7164 10.2036 38.3728 9.88698C38.344 9.66998 38.3672 9.44635 38.4615 9.21827C38.8485 8.27282 39.8774 8.39682 40.434 8.4566C40.7156 8.49203 41.0671 8.53853 41.4463 8.51859C42.0428 8.48982 42.3632 8.31266 42.8489 8.04695C43.3134 7.79232 43.8911 7.47569 44.7482 7.30077C46.4379 6.94872 47.8538 7.42698 48.3206 7.58418C50.7765 8.40121 51.9872 10.3076 53.3887 12.5152C53.6681 12.958 54.6272 14.5699 55.2603 16.7797C55.7171 18.3739 55.6528 19.0825 55.5153 19.6095C55.2359 20.6922 54.5762 21.3122 52.9008 22.6806C51.1512 24.1132 50.2731 24.8306 49.5191 25.2667C47.764 26.2786 46.6618 26.9141 45.1983 26.9141Z" fill="#DAFBFF"/>
<path d="M74.0713 50.8107L74.0489 51.18L73.3344 62.9684L89.9884 64.7158L85.3328 49.4429L74.0713 50.8107Z" fill="#A0616A"/>
<path d="M124.562 49.9962C124.579 49.999 124.603 50.0031 124.633 50.008C125.211 50.1035 128.705 50.6418 132.228 49.3019C133.72 48.7342 133.211 48.5927 136.535 46.6192C140.432 44.3054 141.432 44.3215 141.722 43.2427C142.302 41.0883 139.207 37.7017 137.159 37.9247C136.62 37.9834 136.043 38.3043 135.145 38.0867C134.947 38.0389 134.084 37.8296 133.663 37.1156C133.287 36.4788 133.605 36.0193 133.454 35.497C133.057 34.126 129.752 33.4417 126.854 33.9252C125.187 34.2032 123.89 34.9624 121.365 36.4692C116.971 39.092 114.773 40.4034 114.28 42.4126C113.812 44.317 114.935 45.1375 114.118 47.1761C113.357 49.0742 112.149 48.9474 111.733 50.4829C111.064 52.9538 113.547 55.6657 114.582 56.7954C115.716 58.0339 116.801 58.7137 118.241 59.6161C120.049 60.7488 120.953 61.3152 122.039 61.2576C124.009 61.1531 129.864 61.5087 129.94 59.8808C129.969 59.2707 137.069 59.7703 133.573 53.2021C133.144 52.3964 124.743 53.257 124.632 52.7942" fill="#2F2E41"/>
<path d="M117.645 53.0505L117.623 53.4198L116.908 65.2081L133.562 66.9555L128.907 51.6826L117.645 53.0505Z" fill="#FFB6B6"/>
<path d="M248 130.32C248 130.468 247.88 130.588 247.731 130.588H0V130.051H247.731C247.88 130.051 248 130.171 248 130.32Z" fill="#E6E6E6"/>
<path d="M165.38 113.291C168.052 116.164 171.702 117.116 173.532 115.418C175.363 113.72 174.681 110.016 172.008 107.143C170.956 105.98 169.641 105.086 168.172 104.536L156.698 92.5068L151.16 98.0032L163.059 109.278C163.501 110.782 164.297 112.158 165.38 113.291Z" fill="#FFB6B6"/>
<path d="M141.309 105.046C145.025 106.313 148.691 105.425 149.498 103.064C150.305 100.703 147.947 97.763 144.23 96.4964C142.752 95.9702 141.169 95.805 139.614 96.0146L123.804 90.8467L121.533 98.3067L137.361 102.609C138.463 103.725 139.817 104.561 141.309 105.046Z" fill="#A0616A"/>
<path d="M88.8448 59.8501C88.8448 59.8501 79.044 71.6232 84.7139 76.4943C90.3839 81.3654 115.704 99.3978 115.704 99.3978L125.575 100.933L128.1 91.4051L105.811 74.9136L88.8448 59.8501Z" fill="#308FA2"/>
<path d="M126.161 57.2289C132.291 57.2289 137.26 52.267 137.26 46.1462C137.26 40.0254 132.291 35.0635 126.161 35.0635C120.031 35.0635 115.062 40.0254 115.062 46.1462C115.062 52.267 120.031 57.2289 126.161 57.2289Z" fill="#FFB6B6"/>
<path d="M122.586 46.8634C122.602 46.8662 122.626 46.8703 122.656 46.8752C123.234 46.9707 126.728 47.509 130.251 46.169C131.744 45.6014 131.234 45.4599 134.558 43.4863C138.455 41.1726 139.455 41.1887 139.745 40.1099C140.325 37.9555 137.231 34.5689 135.183 34.7919C134.644 34.8506 134.066 35.1715 133.168 34.9539C132.971 34.9061 132.107 34.6968 131.686 33.9828C131.31 33.346 131.628 32.8865 131.477 32.3642C131.081 30.9932 127.775 30.3089 124.877 30.7924C123.21 31.0704 121.914 31.8296 119.389 33.3364C114.994 35.9592 112.797 37.2706 112.303 39.2798C111.835 41.1841 112.958 42.0047 112.141 44.0433C111.38 45.9414 110.172 45.8146 109.756 47.3501C109.087 49.821 111.571 52.5329 112.605 53.6626C113.739 54.9011 114.824 55.5809 116.264 56.4833C118.072 57.616 118.976 58.1824 120.063 58.1248C122.033 58.0203 123.992 56.2376 124.069 54.6097C124.097 53.9996 123.842 53.8166 123.211 51.7193C122.949 50.8455 122.766 50.1242 122.655 49.6613" fill="#2F2E41"/>
<path d="M193.31 146.47L204.845 160.866L210.932 151.909L201.961 143.591L193.31 146.47Z" fill="#FFB6B6"/>
<path d="M145.892 111.599C145.892 111.599 181.352 115.758 184.288 118.637C187.223 121.517 204.845 145.83 204.845 145.83L197.476 151.589L178.475 131.419L137.972 131.103L145.892 111.599Z" fill="#2F2E41"/>
<path d="M165.115 111.599L176.65 125.996L182.737 117.038L173.766 108.72L165.115 111.599Z" fill="#FFB6B6"/>
<path d="M175.048 121.837C175.048 121.837 172.485 121.197 172.485 123.436C172.485 125.676 173.125 132.394 173.125 132.394C173.125 132.394 202.602 127.275 202.602 124.076C202.602 120.877 194.592 121.517 194.592 121.517L183.058 116.078L175.048 121.837Z" fill="#2F2E41"/>
<path d="M114.813 185.18L120.26 205.335L128.911 203.736L126.988 182.941L114.813 185.18Z" fill="#A0616A"/>
<path d="M121.542 204.055L118.338 204.695L115.774 213.333C115.774 213.333 119.94 214.933 119.94 218.132C119.94 221.331 121.542 223.57 127.949 223.25C134.357 222.931 134.998 223.25 134.998 220.691C134.998 218.132 130.192 204.695 130.192 204.695C130.192 204.695 130.513 199.257 126.668 199.577C122.823 199.896 121.542 204.055 121.542 204.055Z" fill="#2F2E41"/>
<path d="M85.5238 184.867L85.8955 205.739L94.676 206.289L97.8787 185.653L85.5238 184.867Z" fill="#A0616A"/>
<path d="M87.4504 204.809L84.1868 204.652L79.5958 212.407C79.5958 212.407 83.246 214.97 82.4664 218.073C81.6869 221.177 82.695 223.738 88.9883 224.984C95.2816 226.231 95.8252 226.697 96.4488 224.214C97.0725 221.732 95.6853 207.532 95.6853 207.532C95.6853 207.532 97.3213 202.334 93.5141 201.711C89.707 201.087 87.4504 204.809 87.4504 204.809Z" fill="#2F2E41"/>
<path d="M89.1814 60.0927L71.88 58.813L68.0352 63.6117C68.0352 63.6117 66.1128 95.9234 67.3944 99.1226C68.676 102.322 67.7148 120.557 67.7148 120.557L111.33 117.518L101.677 94.3238L101.997 80.8873L93.3465 64.5715L89.1814 60.0927Z" fill="#308FA2"/>
<path d="M69.6372 113.839C69.6372 113.839 62.5884 124.076 65.1516 129.515C67.7148 134.953 85.1011 166.532 85.1011 166.532L82.8583 195.964L98.2373 194.684L100.801 163.013L90.1426 137.193L92.065 134.314L108.085 153.829L113.852 187.74L129.231 185.82L120.901 136.233L111.165 117.121L69.6372 113.839Z" fill="#2F2E41"/>
<path d="M130.513 59.1327L117.697 57.853L107.124 68.0904C107.124 68.0904 101.997 82.8066 102.959 90.8045C103.92 98.8024 112.25 118.637 112.25 118.637L125.386 109.04L140.445 109.68V79.7296L132.755 62.9717L130.513 59.1327Z" fill="#FF6884"/>
<path d="M128.026 62.9688C128.026 62.9688 135.395 63.9238 138.584 69.3996C141.772 74.8754 164.756 100.641 164.756 100.641L160.402 104.619L137.755 90.0294L129.059 75.0957L128.026 62.9688Z" fill="#FF6884"/>
<path d="M111.129 115.278C111.129 115.278 110.007 128.555 117.056 130.475C124.105 132.394 142.367 130.794 142.367 130.794L153.902 101.042L165.115 114.479L176.009 109.36C176.009 109.36 164.475 77.0483 158.067 77.0483C151.659 77.0483 141.406 86.006 141.406 86.006L124.745 108.4L111.129 115.278Z" fill="#2F2E41"/>
<path d="M203.243 156.708C203.243 156.708 200.68 156.068 200.68 158.307C200.68 160.547 201.32 167.265 201.32 167.265C201.32 167.265 230.797 162.146 230.797 158.947C230.797 155.748 222.787 156.388 222.787 156.388L211.253 150.949L203.243 156.708Z" fill="#2F2E41"/>
<path d="M68.1313 40.501C71.4119 40.501 74.0714 37.8455 74.0714 34.5698C74.0714 31.2941 71.4119 28.6387 68.1313 28.6387C64.8507 28.6387 62.1913 31.2941 62.1913 34.5698C62.1913 37.8455 64.8507 40.501 68.1313 40.501Z" fill="#2F2E41"/>
<path d="M81.8491 56.5578C88.9934 56.5578 94.785 50.7749 94.785 43.6412C94.785 36.5076 88.9934 30.7246 81.8491 30.7246C74.7047 30.7246 68.9131 36.5076 68.9131 43.6412C68.9131 50.7749 74.7047 56.5578 81.8491 56.5578Z" fill="#A0616A"/>
<path d="M77.7475 57.8019C76.3726 58.5292 72.504 55.8592 71.1198 52.2817C70.2293 49.9801 68.0643 50.363 66.6828 47.4928C65.8778 45.8203 68.2816 44.1843 67.8852 42.7383C67.1668 40.1182 68.0674 37.7741 68.1822 37.4869C69.1727 35.008 70.6328 35.0656 71.8103 32.1802C72.5191 30.4431 72.0644 30.2396 72.6602 29.351C74.3798 26.7862 79.3693 26.6887 82.8883 27.9016C84.1061 28.3213 87.0393 26.0723 89.4204 27.7015C92.2258 29.6211 94.0921 35.1542 93.6627 36.1681C93.4019 36.7841 91.9494 36.1565 88.9288 36.6306C86.1321 37.0695 89.8232 39.1558 86.6759 39.867C82.9542 40.708 81.833 39.9406 80.8016 41.1162C79.7114 42.359 79.5098 44.8744 80.5046 46.3676C80.9983 47.1085 81.6349 47.37 81.5551 47.8857C81.4095 48.8271 80.5721 48.3153 80.2974 49.3141C79.9779 50.4758 82.6289 51.999 82.3984 52.3503C82.352 52.4211 82.1534 52.4978 79.5649 51.5016C78.5313 51.1039 78.1328 50.7605 78.0168 50.8875C77.8291 51.0932 76.8998 53.1559 77.9558 54.0333C79.5991 55.3986 78.4601 55.9409 79.2093 57.01C79.9821 58.113 78.6213 57.3398 77.7475 57.8019Z" fill="#2F2E41"/>
<path d="M80.7764 132.432C82.8409 135.767 86.2374 137.406 88.3624 136.094C90.4874 134.782 90.5361 131.015 88.4704 127.68C87.6636 126.336 86.5462 125.205 85.2118 124.381L76.2859 110.363L69.7871 114.686L79.2765 128.046C79.4185 129.607 79.9328 131.111 80.7764 132.432Z" fill="#A0616A"/>
<path d="M68.9964 64.2515C68.9964 64.2515 53.9378 67.1307 55.2194 74.4888C56.501 81.8469 64.5905 111.832 64.5905 111.832L71.2392 119.277L79.2491 113.519L72.5208 86.6457L68.9964 64.2515Z" fill="#308FA2"/>
<path d="M140.909 133.623C142.964 136.963 146.357 138.611 148.485 137.304C150.614 135.997 150.672 132.231 148.615 128.89C147.811 127.545 146.697 126.41 145.364 125.583L136.474 111.542L129.965 115.849L139.42 129.233C139.558 130.794 140.068 132.299 140.909 133.623Z" fill="#FFB6B6"/>
<path d="M120.904 66.1719L108.223 69.3471C108.223 69.3471 112.663 85.146 113.704 90.8098C114.744 96.4736 136.643 127.679 136.643 127.679L143.266 119.768L123.871 84.0766L120.904 66.1719Z" fill="#FF6884"/>
</g>
<defs>
<clipPath id="clip0_26_20">
<rect width="248" height="226" fill="white"/>
</clipPath>
</defs>
</svg>
