<svg width="478" height="563" viewBox="0 0 478 563" fill="none" xmlns="http://www.w3.org/2000/svg">
<path d="M391.3 254.895C406.094 264.816 419.95 278.101 432.93 294.486V319.539C426.596 317.297 402.421 308.002 392.876 293.303C381.844 276.314 379.881 250.526 389.07 244.07C391.463 242.392 394.37 242.183 397.559 243.103C407.617 250.627 417.237 259.751 426.425 270.383C429.681 275.588 431.696 282.214 432.93 288.911V289.228C421.043 272.015 407.067 260.849 391.3 254.895Z" fill="#308FA2"/>
<path d="M390.557 101.017C405.35 110.938 419.207 124.223 432.187 140.608V146.33C430.945 145.889 429.027 145.186 426.663 144.219C416.048 131.128 403.945 122.313 390.557 117.256C399.923 123.534 408.918 131.166 417.549 140.082C408.42 135.512 397.745 128.738 392.133 120.093C391.538 119.181 390.973 118.261 390.438 117.333C380.997 101.033 380.372 83.155 389.07 77.0463C398.258 70.5895 414.368 79.7372 425.399 96.7179C431.778 106.546 433.569 121.795 433.934 132.891C433.346 133.695 432.767 134.515 432.187 135.35C420.3 118.137 406.324 106.971 390.557 101.017Z" fill="#308FA2"/>
<path d="M474.768 192.42V192.428C473.713 195.467 472.389 198.537 470.813 201.56C468.472 206.061 464.874 210.236 460.8 213.971C456.436 217.976 451.515 221.472 446.988 224.309C440.669 228.276 435.116 230.967 432.93 231.988V229.552C445.486 214.01 458.837 201.344 473.073 191.802C457.953 197.508 444.49 208.025 432.93 224.054V213.314C445.486 197.771 458.837 185.105 473.073 175.563C457.953 181.27 444.49 191.786 432.93 207.816V197.075C445.322 181.742 458.481 169.207 472.508 159.712C479.08 165.209 479.652 178.471 474.768 192.42Z" fill="#308FA2"/>
<path d="M106.814 300.975C165.806 300.975 213.629 251.231 213.629 189.87C213.629 128.508 165.806 78.7645 106.814 78.7645C47.8224 78.7645 0 128.508 0 189.87C0 251.231 47.8224 300.975 106.814 300.975Z" fill="#FF6884"/>
<path d="M441.476 368.001C450.46 375.873 453.838 387.076 449.02 393.022C444.203 398.968 433.017 397.406 424.031 389.53C420.4 386.435 417.534 382.481 415.673 377.998L378.013 344.144L393.663 326.099L429.128 361.389C433.693 362.536 437.927 364.803 441.476 368.001Z" fill="#C78C8C"/>
<path d="M411.066 342.954L365.027 281.46L321.421 198.448L320.29 313.578L385.653 369.419L411.066 342.954Z" fill="#2F2E41"/>
<path d="M210.794 173.692L221.341 123.812L256.593 125.576L265.641 161.761L210.794 173.692Z" fill="#C48282"/>
<path d="M238.094 137.196C259.89 137.196 277.56 118.817 277.56 96.145C277.56 73.4732 259.89 55.094 238.094 55.094C216.298 55.094 198.629 73.4732 198.629 96.145C198.629 118.817 216.298 137.196 238.094 137.196Z" fill="#C78C8C"/>
<path d="M220.441 111.998C220.441 111.998 216.46 111.958 208.178 110.356C199.897 108.754 214.275 128.883 214.275 128.883C175.303 111.956 187.774 69.0224 187.774 69.0224C148.222 61.1545 164.792 24.5814 164.792 24.5814C164.792 24.5814 177.829 -1.5891 217.908 0.0762367C257.987 1.74158 239.053 42.8583 239.053 42.8583C265.165 42.9097 268.103 67.3883 268.103 67.3883C268.103 67.3883 258.69 68.6106 241.582 73.1268C224.475 77.6429 220.441 111.998 220.441 111.998Z" fill="#2F2E41"/>
<path d="M218.876 157.982L217.094 154.372C217.094 154.372 185.38 158.196 180.176 163.243C174.972 168.29 163.078 190.715 163.078 190.715L189.097 213.913L218.876 157.982Z" fill="#FFB6B6"/>
<path d="M258.232 157.106C258.232 157.106 282.021 150.506 295.402 164.424C308.783 178.343 324.395 203.86 324.395 203.86L323.651 223.965L286.481 205.328L258.232 157.106Z" fill="#FFB6B6"/>
<path d="M264.297 154.372C264.297 154.372 295.402 142.773 315.474 167.517C335.545 192.261 341.493 270.36 341.493 270.36C341.493 270.36 386.84 414.959 375.689 416.506C364.538 418.052 296.488 422.327 296.488 422.327L273.1 264.948L262.693 154.372L264.297 154.372Z" fill="#2F2E41"/>
<path d="M192.814 293.558L185.38 321.395L286.481 329.128C286.481 329.128 282.764 305.857 286.481 297.388L192.814 293.558Z" fill="#C78C8C"/>
<path d="M250.055 474.5L254.515 541L310.656 539.453L308.783 472.18L250.055 474.5Z" fill="#C78C8C"/>
<path d="M162.465 467.922L145.98 540.227L204.752 539.813L219.725 480.713L162.465 467.922Z" fill="#C78C8C"/>
<path d="M262.693 154.372H217.094L180.176 205.407L188.353 309.796C188.353 309.796 206.938 304.384 232.957 304.384H288.711C288.711 304.384 280.534 277.32 290.942 266.494C301.349 255.668 293.915 205.407 293.915 205.407L262.693 154.372Z" fill="#308FA2"/>
<path d="M181.663 312.889L140.033 469.86C140.033 469.86 201.333 495.481 238.332 488.084C275.33 480.686 325.881 478.366 325.881 478.366L290.198 319.075L181.663 312.889Z" fill="#2F2E41"/>
<path d="M277.929 370.321C286.913 378.193 290.291 389.396 285.474 395.342C280.656 401.288 269.47 399.726 260.484 391.85C256.853 388.755 253.987 384.801 252.126 380.317L214.466 346.463L230.116 328.419L265.581 363.709C270.146 364.855 274.38 367.123 277.929 370.321Z" fill="#C78C8C"/>
<path d="M254.953 342.954L208.914 281.46L165.308 198.448L164.177 313.578L229.541 369.419L254.953 342.954Z" fill="#2F2E41"/>
<path d="M220.202 154.372C220.202 154.372 189.097 142.773 169.025 167.517C148.953 192.261 143.006 270.36 143.006 270.36C143.006 270.36 97.6591 414.959 108.81 416.506C119.961 418.052 188.011 422.327 188.011 422.327L211.398 264.948L221.806 154.372L220.202 154.372Z" fill="#2F2E41"/>
<path d="M433.673 124.988H432.187V394.081H433.673V124.988Z" fill="#3F3D56"/>
<path d="M20.3461 401.041C35.1397 410.961 48.9966 424.246 61.9762 440.631V465.685C55.6425 463.442 31.4673 454.148 21.9221 439.448C10.8902 422.46 8.92762 396.672 18.116 390.215C20.5097 388.537 23.4164 388.328 26.6055 389.248C36.6636 396.772 46.2832 405.897 55.4715 416.529C58.7276 421.733 60.7423 428.36 61.9762 435.056V435.373C50.0894 418.16 36.1135 406.995 20.3461 401.041Z" fill="#308FA2"/>
<path d="M19.6028 247.163C34.3963 257.083 48.2532 270.368 61.2329 286.753V292.475C59.9915 292.035 58.0734 291.331 55.7095 290.364C45.0938 277.273 32.9913 268.458 19.6028 263.401C28.9695 269.68 37.9646 277.312 46.5955 286.228C37.4666 281.658 26.7914 274.884 21.1788 266.239C20.5841 265.326 20.0191 264.406 19.4839 263.478C10.0427 247.178 9.41827 229.3 18.116 223.192C27.3043 216.735 43.4137 225.883 54.4457 242.863C60.824 252.691 62.6156 267.94 62.9798 279.036C62.3926 279.84 61.8127 280.66 61.2329 281.495C49.346 264.283 35.3701 253.117 19.6028 247.163Z" fill="#308FA2"/>
<path d="M103.815 338.566V338.574C102.759 341.612 101.436 344.682 99.8596 347.706C97.518 352.206 93.9199 356.382 89.8461 360.116C85.4824 364.122 80.5611 367.617 76.0338 370.455C69.7149 374.422 64.1618 377.113 61.9763 378.133V375.698C74.5322 360.155 87.8835 347.489 102.12 337.947C86.9988 343.654 73.5361 354.17 61.9763 370.2V359.459C74.5322 343.917 87.8835 331.251 102.12 321.709C86.9988 327.415 73.5361 337.932 61.9763 353.961V343.221C74.3686 327.887 87.5267 315.353 101.555 305.857C108.126 311.355 108.699 324.616 103.815 338.566Z" fill="#308FA2"/>
<path d="M62.7196 271.134H61.2328V540.227H62.7196V271.134Z" fill="#3F3D56"/>
<path d="M449 538.159C449 548.377 348.488 556.659 224.5 556.659C100.512 556.659 0 548.377 0 538.159C0 527.942 100.512 531.659 224.5 531.659C348.488 531.659 449 527.942 449 538.159Z" fill="#308FA2"/>
</svg>
