<svg width="427" height="465" viewBox="0 0 427 465" fill="none" xmlns="http://www.w3.org/2000/svg">
<path d="M426.959 462.226H96.071V463.655H426.959V462.226Z" fill="#3F3D56"/>
<path d="M365.207 219.208C365.844 219.957 366.317 220.832 366.594 221.776C366.872 222.72 366.949 223.712 366.82 224.687C366.69 225.663 366.358 226.6 365.843 227.439C365.329 228.278 364.645 228.999 363.835 229.556L329.591 253.099L314.511 263.166C313.655 263.738 312.617 263.97 311.598 263.817C310.58 263.665 309.655 263.138 309.003 262.341C308.623 261.875 308.349 261.333 308.199 260.751C308.048 260.17 308.026 259.562 308.133 258.971C308.24 258.379 308.474 257.818 308.819 257.327C309.164 256.835 309.611 256.424 310.13 256.122L324.735 247.63L350.225 223.321L333.839 205.696L345.977 196.581L365.207 219.208Z" fill="#A0616A"/>
<path d="M284.681 440.888H276.304L271.329 371.606L292.57 370.999L284.681 440.888Z" fill="#A0616A"/>
<path d="M285.287 463.374C283.054 464.394 281.183 456.124 279.299 457.978C274.029 463.164 265.959 464.293 258.925 462.029L261.387 462.002C260.963 461.865 260.57 461.643 260.234 461.351C259.897 461.058 259.624 460.699 259.43 460.297C259.235 459.895 259.125 459.458 259.104 459.012C259.084 458.566 259.154 458.121 259.311 457.703C259.498 457.202 259.804 456.755 260.202 456.4C260.6 456.044 261.079 455.79 261.596 455.661L267.201 454.258L276.001 438.761L284.984 438.153C286.987 440.71 288.384 443.688 289.072 446.864C289.76 450.039 289.719 453.33 288.954 456.487C288.138 459.819 286.88 462.646 285.287 463.374Z" fill="#2F2E41"/>
<path d="M340.455 440.888H332.078L327.103 371.606L348.951 367.353L340.455 440.888Z" fill="#A0616A"/>
<path d="M341.062 463.373C338.828 464.394 336.957 456.124 335.073 457.978C329.803 463.164 321.734 464.293 314.699 462.029L317.161 462.001C316.737 461.865 316.344 461.643 316.008 461.35C315.671 461.057 315.398 460.699 315.204 460.297C315.01 459.895 314.899 459.458 314.878 459.012C314.858 458.566 314.928 458.121 315.085 457.702C315.272 457.202 315.578 456.755 315.976 456.399C316.374 456.044 316.853 455.79 317.37 455.66L322.975 454.257L331.775 438.76L341.365 437.545L341.607 437.942C343.461 440.934 344.657 444.288 345.114 447.779C345.571 451.271 345.279 454.82 344.257 458.189C343.46 460.748 342.374 462.774 341.062 463.373Z" fill="#2F2E41"/>
<path d="M349.953 198.148C342.249 199.221 336.916 203.446 334.744 211.873L320.585 185.693C319.745 184.03 319.533 182.119 319.986 180.311C320.439 178.502 321.527 176.918 323.052 175.849C324.67 174.713 326.66 174.241 328.615 174.527C330.57 174.814 332.341 175.838 333.567 177.39L349.953 198.148Z" fill="#308FA2"/>
<path d="M364.79 364.314C330.363 379.567 295.129 381.444 259.191 371.606C272.315 320.637 287.81 274.549 287.715 236.691L322.915 233.652L328.334 242.256C341.193 262.67 350.069 285.34 354.491 309.066L364.79 364.314Z" fill="#2F2E41"/>
<path d="M307.135 158.293C317.191 158.293 325.342 150.131 325.342 140.061C325.342 129.992 317.191 121.83 307.135 121.83C297.08 121.83 288.929 129.992 288.929 140.061C288.929 150.131 297.08 158.293 307.135 158.293Z" fill="#A0616A"/>
<path d="M327.163 172.271L304.708 173.487L301.067 153.432L319.273 150.393L327.163 172.271Z" fill="#A0616A"/>
<path d="M324.735 236.691L300.135 237.384L287.715 239.121C281.619 218.955 276.486 198.835 288.929 181.995L303.494 167.409L325.342 166.802L325.632 166.967C329.102 168.958 331.791 172.073 333.256 175.799C334.721 179.524 334.875 183.639 333.693 187.464C328.271 205.107 324.788 221.768 324.735 236.691Z" fill="#308FA2"/>
<path d="M287.108 293.209L285.582 314.093C285.501 315.212 285.018 316.263 284.224 317.054C283.429 317.844 282.376 318.32 281.258 318.395C280.614 318.438 279.969 318.346 279.362 318.125C278.756 317.905 278.202 317.56 277.736 317.112C277.27 316.665 276.902 316.126 276.656 315.529C276.409 314.931 276.29 314.289 276.305 313.643L276.791 293.209L291.964 235.475L292.57 200.227L309.563 199.619L308.35 240.337L287.108 293.209Z" fill="#A0616A"/>
<path d="M311.384 202.658C304.179 199.724 297.451 200.707 291.357 206.912L292.191 177.151C292.297 175.29 293.068 173.529 294.364 172.191C295.661 170.854 297.395 170.028 299.25 169.867C301.218 169.695 303.177 170.284 304.726 171.512C306.275 172.741 307.296 174.516 307.581 176.474L311.384 202.658Z" fill="#308FA2"/>
<path d="M345.673 221.193H289.839C302.864 186.655 307.064 154.524 289.839 126.995C290.135 118.727 300.725 111.559 308.95 112.351C318.663 113.286 331.716 120.434 333.535 130.034L345.673 221.193Z" fill="#2F2E41"/>
<path d="M231.112 110.296H228.565V40.4342C228.565 35.1243 227.52 29.8664 225.491 24.9607C223.462 20.055 220.488 15.5975 216.738 11.8429C212.989 8.0882 208.537 5.10984 203.638 3.07783C198.74 1.04583 193.489 -1.59123e-05 188.186 1.81584e-10H40.3785C35.0759 -1.17248e-05 29.8253 1.04584 24.9263 3.07785C20.0274 5.10985 15.5761 8.08821 11.8266 11.8429C8.0771 15.5975 5.10283 20.055 3.07362 24.9607C1.04441 29.8664 -5.8544e-06 35.1243 0 40.4342V423.702C-4.18171e-06 429.012 1.04441 434.27 3.07362 439.175C5.10283 444.081 8.0771 448.539 11.8266 452.293C15.5761 456.048 20.0274 459.026 24.9263 461.058C29.8253 463.09 35.0759 464.136 40.3785 464.136H188.186C193.489 464.136 198.74 463.09 203.638 461.058C208.537 459.026 212.989 456.048 216.738 452.293C220.488 448.539 223.462 444.081 225.491 439.175C227.52 434.27 228.565 429.012 228.565 423.702V160.025H231.112V110.296Z" fill="#3F3D56"/>
<path d="M189.816 10.5195H170.522C171.409 12.6978 171.748 15.0612 171.508 17.4015C171.268 19.7417 170.457 21.9871 169.147 23.9396C167.837 25.8922 166.067 27.4921 163.993 28.5984C161.92 29.7047 159.607 30.2834 157.258 30.2836H72.5804C70.2311 30.2834 67.9179 29.7047 65.8446 28.5984C63.7712 27.4921 62.0014 25.8922 60.691 23.9396C59.3806 21.9871 58.5698 19.7417 58.3301 17.4015C58.0904 15.0612 58.4291 12.6978 59.3163 10.5195H41.2959C37.336 10.5195 33.4148 11.3006 29.7564 12.818C26.0979 14.3355 22.7737 16.5597 19.9736 19.3636C17.1736 22.1676 14.9524 25.4963 13.437 29.1598C11.9216 32.8234 11.1417 36.7499 11.1417 40.7153V423.421C11.1417 427.386 11.9216 431.313 13.437 434.976C14.9524 438.64 17.1736 441.968 19.9736 444.772C22.7737 447.576 26.0979 449.801 29.7564 451.318C33.4148 452.835 37.336 453.617 41.2959 453.617H189.816C193.775 453.617 197.697 452.835 201.355 451.318C205.013 449.801 208.338 447.576 211.138 444.772C213.938 441.968 216.159 438.64 217.674 434.976C219.19 431.313 219.97 427.386 219.97 423.421V40.7153C219.97 32.7068 216.793 25.0264 211.138 19.3636C205.483 13.7008 197.813 10.5195 189.816 10.5195Z" fill="white"/>
<path d="M193.89 70.301H37.2213V204.865H193.89V70.301Z" fill="#E6E6E6"/>
<path d="M83.7125 232.926C90.0436 232.926 95.176 227.786 95.176 221.446C95.176 215.106 90.0436 209.967 83.7125 209.967C77.3813 209.967 72.2489 215.106 72.2489 221.446C72.2489 227.786 77.3813 232.926 83.7125 232.926Z" fill="#308FA2"/>
<path d="M89.4444 220.49H84.6679V215.707H82.7573V220.49H77.9808V222.403H82.7573V227.186H84.6679V222.403H89.4444V220.49Z" fill="white"/>
<path d="M144.215 232.926C150.546 232.926 155.678 227.786 155.678 221.446C155.678 215.106 150.546 209.967 144.215 209.967C137.883 209.967 132.751 215.106 132.751 221.446C132.751 227.786 137.883 232.926 144.215 232.926Z" fill="#308FA2"/>
<path d="M149.946 222.403V220.49H138.483V222.403H149.946Z" fill="white"/>
<path d="M121.399 87.083H109.018C108.583 87.083 108.165 87.2562 107.857 87.5644C107.549 87.8727 107.376 88.2908 107.376 88.7267V94.1685C107.376 94.6045 107.549 95.0225 107.857 95.3308C108.165 95.639 108.583 95.8122 109.018 95.8122H111.07V103.966H119.347V95.8122H121.399C121.834 95.8122 122.252 95.639 122.559 95.3308C122.867 95.0225 123.04 94.6045 123.04 94.1685V88.7267C123.04 88.2908 122.867 87.8727 122.559 87.5644C122.252 87.2562 121.834 87.083 121.399 87.083Z" fill="#308FA2"/>
<path d="M133.799 136.886C126.217 125.776 122.341 112.547 122.726 99.0959C122.733 98.7856 122.632 98.4824 122.441 98.2378C122.25 97.9933 121.981 97.8225 121.678 97.7544V95.4031H108.602V97.7218H108.422C108.246 97.722 108.072 97.757 107.909 97.8247C107.746 97.8924 107.598 97.9916 107.474 98.1165C107.35 98.2414 107.251 98.3897 107.184 98.5528C107.116 98.7159 107.082 98.8906 107.082 99.0671C107.082 99.0997 107.083 99.1323 107.086 99.1649C108.116 113.544 104.638 126.44 96.6504 137.851C96.1908 138.506 95.956 139.294 95.9812 140.095L97.411 184.382C97.4453 185.37 97.8594 186.307 98.5666 186.996C99.2739 187.686 100.22 188.075 101.207 188.083H130.782C131.781 188.075 132.736 187.676 133.446 186.973C134.155 186.27 134.562 185.317 134.58 184.317L135.131 141.317C135.148 139.739 134.683 138.193 133.799 136.886Z" fill="#3F3D56"/>
<path opacity="0.2" d="M118.818 88.856C118.818 89.7965 118.445 90.6985 117.781 91.3635C117.116 92.0286 116.216 92.4022 115.276 92.4022C114.337 92.4022 113.436 92.0286 112.772 91.3635C112.108 90.6985 111.735 89.7965 111.735 88.856" fill="black"/>
<path d="M129.118 151.597H125.536C125.194 149.376 124.07 147.35 122.366 145.886C120.662 144.423 118.491 143.618 116.246 143.618C114.001 143.618 111.831 144.423 110.127 145.886C108.423 147.35 107.298 149.376 106.956 151.597H103.375C102.993 151.597 102.617 151.68 102.271 151.839C101.924 151.998 101.617 152.231 101.369 152.521C101.121 152.81 100.938 153.15 100.833 153.517C100.729 153.884 100.704 154.269 100.762 154.646L104.652 179.967H126.99L131.715 154.732C131.787 154.349 131.773 153.956 131.676 153.58C131.579 153.203 131.399 152.853 131.151 152.554C130.903 152.254 130.593 152.014 130.241 151.848C129.89 151.683 129.506 151.597 129.118 151.597Z" fill="#308FA2"/>
<path d="M193.89 259.711H37.2213V394.275H193.89V259.711Z" fill="#E6E6E6"/>
<path d="M83.7125 422.336C90.0436 422.336 95.176 417.196 95.176 410.856C95.176 404.516 90.0436 399.377 83.7125 399.377C77.3813 399.377 72.2489 404.516 72.2489 410.856C72.2489 417.196 77.3813 422.336 83.7125 422.336Z" fill="#308FA2"/>
<path d="M89.4444 409.9H84.6679V405.117H82.7573V409.9H77.9808V411.813H82.7573V416.596H84.6679V411.813H89.4444V409.9Z" fill="white"/>
<path d="M144.215 422.336C150.546 422.336 155.678 417.196 155.678 410.856C155.678 404.516 150.546 399.377 144.215 399.377C137.883 399.377 132.751 404.516 132.751 410.856C132.751 417.196 137.883 422.336 144.215 422.336Z" fill="#308FA2"/>
<path d="M149.946 411.813V409.9H138.483V411.813H149.946Z" fill="white"/>
<path d="M146.398 355.307L146.484 355.307C149.434 355.332 152.323 354.466 154.774 352.822C157.224 351.178 159.123 348.833 160.223 346.092C163.689 337.317 164.5 327.716 162.556 318.482C160.613 309.249 156 300.793 149.292 294.165C142.584 287.538 134.077 283.034 124.832 281.212C115.586 279.39 106.009 280.332 97.294 283.921C88.579 287.509 81.1105 293.586 75.8187 301.393C70.5268 309.201 67.6453 318.395 67.533 327.83C67.4206 337.265 70.0824 346.525 75.1869 354.457C80.2914 362.389 87.613 368.642 96.2402 372.437C98.9216 373.626 101.899 373.976 104.782 373.44C107.666 372.905 110.32 371.51 112.397 369.437C116.853 364.952 122.152 361.394 127.987 358.969C133.823 356.544 140.08 355.299 146.398 355.307Z" fill="white"/>
<path d="M121.724 340.747C130.484 340.747 137.586 333.636 137.586 324.864C137.586 316.091 130.484 308.98 121.724 308.98C112.964 308.98 105.862 316.091 105.862 324.864C105.862 333.636 112.964 340.747 121.724 340.747Z" fill="#FF6884"/>
</svg>
