<svg width="733" height="503" viewBox="0 0 733 503" fill="none" xmlns="http://www.w3.org/2000/svg">
<g clip-path="url(#clip0_45_134)">
<rect x="0.835022" y="0.00292969" width="732" height="503" rx="20" fill="#DAFBFF"/>
<path d="M722.17 398.952C719.009 399.292 715.56 399.802 711.892 400.549C696.34 403.716 696.017 414.277 696.153 416.698L696.048 416.632C694.484 419.141 693.505 421.679 692.913 424.075L692.2 391.709C692.661 390.749 693.08 389.66 693.429 388.544C694.593 392.129 696.502 395.516 698.147 395.291C700.286 394.999 701.219 388.705 700.82 384.233C703.54 387.736 708.118 391.482 709.845 390.327C711.225 389.404 710.406 385.603 708.9 382.148C712.039 384.04 715.516 385.283 716.595 384.082C718.067 382.443 714.539 376.851 711.286 373.729C715.641 374.135 721.179 373.442 721.543 371.46C721.842 369.826 718.545 367.766 715.017 366.439C718.561 365.505 721.875 363.877 721.765 362.266C721.634 360.353 716.714 359.071 712.47 358.876C715.671 356.371 718.613 352.909 717.713 351.343C716.886 349.903 713.039 350.461 709.489 351.729C711.59 348.725 713.067 345.341 711.942 344.183C710.541 342.74 705.568 345.23 702.175 347.983C702.836 343.695 702.502 338.282 700.578 337.793C698.969 337.383 696.689 340.531 695.126 343.961C694.435 340.362 693.036 336.945 691.421 336.945C689.122 336.945 687.257 343.879 687.257 348.396C687.257 348.652 687.264 348.892 687.276 349.122C687.045 348.854 686.78 348.575 686.479 348.282C683.238 345.134 676.965 341.641 675.363 343.291C674.238 344.449 675.715 347.833 677.815 350.836C674.266 349.568 670.418 349.011 669.591 350.45C668.48 352.385 673.23 357.214 677.091 359.555C676.859 359.527 676.615 359.504 676.356 359.486C671.849 359.179 664.804 360.567 664.647 362.861C664.537 364.472 667.851 366.1 671.395 367.034C667.867 368.361 664.571 370.421 664.87 372.054C665.233 374.037 670.772 374.73 675.127 374.324C671.873 377.446 668.345 383.038 669.818 384.677C670.896 385.878 674.373 384.634 677.513 382.743C676.006 386.198 675.188 389.999 676.568 390.922C678.391 392.142 683.393 387.896 686.03 384.242C685.761 388.712 686.831 394.852 688.953 395.095C689.84 395.196 690.781 394.25 691.629 392.792L689.226 427.583C688.664 431.634 692.258 434.278 692.579 435.947L693.097 459.506C692.512 457.828 691.724 456.111 690.662 454.407L690.556 454.473C690.693 452.051 690.37 441.491 674.817 438.324C671.149 437.578 667.701 437.067 664.54 436.727C660.809 436.326 659.354 441.433 662.724 443.083C667.606 445.472 672.197 448.482 674.591 452.047C680.71 461.16 689.165 455.892 690.367 455.074C691.709 457.309 692.59 459.561 693.146 461.704L693.421 474.215C693.354 474.511 693.307 474.677 693.303 474.689L693.432 474.727L694.099 505.006L700.279 504.956L698.069 474.007C698.44 472.337 699.583 466.65 698.069 460.743L695.858 436.425C695.983 437.064 695.852 436.406 695.858 436.425L692.974 426.87C693.393 423.914 694.367 420.589 696.343 417.299C697.545 418.117 706 423.385 712.119 414.272C714.512 410.707 719.104 407.697 723.986 405.308C727.356 403.658 725.901 398.55 722.17 398.952ZM693.936 470.59L693.82 465.295C694.055 467.297 694.043 469.105 693.936 470.59Z" fill="#308FA2"/>
<path d="M92.1696 399.398C89.0087 399.738 85.5604 400.248 81.8925 400.995C66.34 404.162 66.0172 414.722 66.1535 417.143L66.0478 417.078C64.484 419.586 63.5046 422.125 62.9127 424.521L62.2004 392.154C62.661 391.194 63.08 390.106 63.4293 388.99C64.5935 392.575 66.5019 395.962 68.1469 395.737C70.286 395.445 71.2186 389.151 70.8196 384.678C73.5397 388.181 78.1177 391.928 79.8447 390.773C81.2247 389.85 80.4064 386.049 78.8998 382.594C82.0391 384.485 85.5159 385.728 86.5948 384.527C88.0671 382.889 84.5392 377.297 81.2858 374.175C85.6407 374.581 91.1795 373.887 91.5426 371.905C91.8418 370.272 88.5454 368.211 85.0171 366.885C88.561 365.951 91.875 364.323 91.7651 362.712C91.6345 360.799 86.7144 359.516 82.4698 359.321C85.6714 356.817 88.613 353.354 87.7134 351.788C86.8864 350.349 83.039 350.906 79.4894 352.174C81.59 349.171 83.0669 345.787 81.9421 344.629C80.5411 343.186 75.5686 345.676 72.175 348.429C72.8357 344.141 72.5017 338.728 70.5784 338.238C68.9695 337.829 66.6892 340.977 65.1257 344.407C64.4348 340.808 63.036 337.391 61.4215 337.391C59.1217 337.391 57.2574 344.325 57.2574 348.842C57.2574 349.097 57.2641 349.338 57.2758 349.567C57.045 349.3 56.7804 349.02 56.4787 348.727C53.238 345.58 46.9648 342.087 45.3626 343.736C44.2378 344.895 45.7147 348.279 47.8153 351.282C44.2657 350.014 40.4183 349.456 39.5913 350.896C38.48 352.83 43.2301 357.659 47.0912 360.001C46.8591 359.973 46.6152 359.949 46.3557 359.932C41.8487 359.624 34.8039 361.012 34.6473 363.307C34.5374 364.917 37.8514 366.546 41.3953 367.48C37.867 368.806 34.5706 370.867 34.8698 372.5C35.2329 374.482 40.7717 375.176 45.1266 374.77C41.8731 377.891 38.3453 383.483 39.8176 385.122C40.8965 386.323 44.3733 385.08 47.5126 383.189C46.006 386.644 45.1877 390.444 46.5677 391.368C48.3914 392.588 53.3931 388.342 56.0302 384.688C55.7615 389.158 56.831 395.298 58.953 395.54C59.8404 395.642 60.7808 394.695 61.6294 393.238L59.2259 428.028C58.664 432.08 62.2578 434.724 62.579 436.393L63.0975 459.952C62.5124 458.274 61.7243 456.557 60.662 454.853L60.5563 454.918C60.6926 452.497 60.3696 441.937 44.8174 438.77C41.1494 438.023 37.7011 437.513 34.5402 437.173C30.809 436.771 29.3536 441.879 32.7242 443.528C37.6057 445.918 42.1975 448.928 44.5909 452.492C50.7099 461.606 59.1646 456.338 60.3667 455.52C61.7093 457.755 62.5897 460.007 63.1458 462.149L63.4211 474.661C63.3537 474.957 63.307 475.123 63.3034 475.135L63.4324 475.173L64.0987 505.452L70.2792 505.402L68.0686 474.452C68.44 472.783 69.5829 467.095 68.0686 461.188L65.8579 436.871C65.9833 437.509 65.8524 436.852 65.8579 436.871L62.9742 427.316C63.3935 424.36 64.3667 421.035 66.3431 417.745C67.5452 418.563 75.9999 423.831 82.1189 414.717C84.5123 411.153 89.1041 408.143 93.9856 405.753C97.3562 404.104 95.9008 398.996 92.1696 399.398ZM63.9362 471.036L63.8197 465.741C64.0547 467.743 64.0428 469.55 63.9362 471.036Z" fill="#308FA2"/>
<path d="M215.052 291.53C219.347 287.902 218.206 279.489 212.504 272.739C210.008 269.785 207.052 267.639 204.156 266.464L200.828 262.623L157.852 208.775C157.852 208.775 134.053 155.208 127.027 149.42C120.002 143.633 111.736 146.646 111.736 146.646L105.286 154.625L145.475 229.419L186.606 270.811L192.158 276.6C192.833 279.651 194.454 282.925 196.95 285.879C202.652 292.629 210.756 295.159 215.052 291.53Z" fill="#A0616A"/>
<path d="M133.928 159.38L144.698 175.175L160.159 198.058L132.378 207.668L107.849 165.58L133.928 159.38Z" fill="#E6E6E6"/>
<path d="M144.862 105.625L137.062 135.363L107.324 129.513C107.324 129.513 119.024 108.062 116.099 98.3121L144.862 105.625Z" fill="#A0616A"/>
<path d="M113.47 492.721L131.378 492.719L139.897 423.645L113.466 423.647L113.47 492.721Z" fill="#A0616A"/>
<path d="M174.825 492.315C175.383 493.254 175.677 496.285 175.677 497.377C175.677 500.734 172.956 503.455 169.599 503.455H114.14C111.85 503.455 109.993 501.598 109.993 499.308V496.999C109.993 496.999 107.25 490.06 112.898 481.507C112.898 481.507 119.918 488.204 130.408 477.714L133.502 472.11L155.894 488.486L168.305 490.014C171.021 490.348 173.428 489.962 174.825 492.315Z" fill="#2F2E41"/>
<path d="M163.194 292.818L138.518 460.739H107.558L111.675 364.886L113.841 314.485L107.558 290.495C107.558 290.495 104.693 285.162 102.279 278.698C99.559 271.404 97.4104 262.659 100.6 258.512C101.774 256.983 104.825 255.852 108.972 255.009C111.506 254.491 114.455 254.088 117.639 253.775C135.948 251.964 161.991 253.095 161.991 253.095L162.653 274.943L163.02 287.143L163.194 292.818Z" fill="#2F2E41"/>
<path d="M81.9246 484.509L99.6423 487.112L118.118 420.011L91.9683 416.168L81.9246 484.509Z" fill="#A0616A"/>
<path d="M142.686 493.031C143.101 494.041 142.951 497.083 142.792 498.163C142.304 501.485 139.216 503.781 135.895 503.293L81.0259 495.226C78.7603 494.893 77.1936 492.786 77.5267 490.52L77.8626 488.236C77.8626 488.236 76.1576 480.971 82.9901 473.33C82.9901 473.33 88.9614 480.978 100.866 472.125L104.741 467.031L124.513 486.49L136.57 489.807C139.208 490.532 141.646 490.501 142.686 493.031Z" fill="#2F2E41"/>
<path d="M163.583 264.814L160.198 293.962L141.74 355.385L111.355 456.509L80.7279 452.008L108.216 308.225L105.494 283.57C105.494 283.57 104.607 281.12 103.591 277.532C101.575 270.434 99.0452 258.875 101.828 252.978C102.204 252.177 102.676 251.481 103.259 250.918C104.354 249.857 106.578 249.212 109.559 248.87C122.016 247.462 147.672 251.489 159.088 253.466L163.583 264.814Z" fill="#2F2E41"/>
<path d="M139.987 126.588L173.625 169.001L167.587 213.22L162.413 258.215L101.474 248.952C101.474 248.952 114.637 217.264 116.099 215.801C117.562 214.339 121.235 217.951 118.667 213.22C116.099 208.489 113.174 208.489 115.612 206.051C118.049 203.614 96.5991 171.926 96.5991 154.863C96.5991 137.8 106.837 124.15 106.837 124.15L139.987 126.588Z" fill="#FF6884"/>
<path d="M132.139 111.241C144.654 111.241 154.799 101.095 154.799 88.5804C154.799 76.0655 144.654 65.9202 132.139 65.9202C119.624 65.9202 109.479 76.0655 109.479 88.5804C109.479 101.095 119.624 111.241 132.139 111.241Z" fill="#A0616A"/>
<path d="M131.08 131.906C131.08 131.906 134.471 105.076 135.071 97.2738C135.671 89.4714 146.685 77.2897 146.685 77.2897L154.487 83.5916C154.487 83.5916 161.089 83.5916 156.588 73.9887C152.086 64.3858 143.684 62.8854 143.684 62.8854C143.684 62.8854 142.783 50.2816 127.179 51.782C111.574 53.2825 104.672 65.8863 104.672 65.8863C104.672 65.8863 103.772 49.9815 93.8688 61.685C83.9658 73.3885 78.2641 78.19 88.7673 82.0911C99.2704 85.9923 107.073 82.9914 107.073 82.9914C107.073 82.9914 96.8697 85.092 98.6702 92.2942C100.471 99.4964 74.9631 132.206 86.6666 135.807C98.3701 139.408 124.478 148.111 127.479 142.409C130.48 136.708 131.08 131.906 131.08 131.906Z" fill="#2F2E41"/>
<path d="M112.035 331.247C117.657 331.302 122.286 324.185 122.373 315.35C122.411 311.482 121.573 307.927 120.147 305.147L120.133 300.064L122.735 231.218C122.735 231.218 139.68 175.104 138.137 166.134C136.593 157.164 128.365 154.05 128.365 154.05L118.271 155.883L99.8826 238.775L104.014 296.981L104.44 304.991C102.959 307.743 102.051 311.281 102.013 315.148C101.925 323.984 106.412 331.191 112.035 331.247Z" fill="#A0616A"/>
<path d="M124.205 145.062C124.205 145.062 97.2225 193.005 101.111 206.739L131.02 207.957C131.02 207.957 132.653 209.225 132.527 203.426C132.402 197.627 139.182 191.149 139.182 191.149C139.182 191.149 139.055 193.975 138.192 189.171C137.328 184.367 153.817 170.33 153.817 170.33L124.205 145.062Z" fill="#FF6884"/>
<path d="M193.814 279.812L196.946 205.142C196.946 205.142 200.464 160.812 203.279 145.332C206.093 129.852 225.092 134.073 225.092 134.073L222.981 178.404L213.873 223.77L206.784 285.546C207.149 287.333 207.356 289.275 207.356 291.314C207.356 299.969 203.742 306.985 199.283 306.985C194.825 306.985 191.211 299.969 191.211 291.314C191.211 286.762 192.217 282.675 193.814 279.812Z" fill="#FFB6B6"/>
<path d="M346.277 260.465C342.947 256.498 338.958 253.802 335.376 252.765L293.249 205.143C293.249 205.143 289.731 160.812 286.916 145.332C284.101 129.852 265.103 134.074 265.103 134.074L267.214 178.404L279.176 226.252L328.471 268.103C329.332 269.672 330.387 271.239 331.651 272.745C337.648 279.888 345.784 282.929 349.823 279.538C353.862 276.148 352.274 267.608 346.277 260.465Z" fill="#FFB6B6"/>
<path d="M253.59 128.092L248.703 109.306L229.666 108.39L223.97 134.287L253.59 128.092Z" fill="#FFB6B6"/>
<path opacity="0.1" d="M253.59 128.092L248.703 109.306L229.666 108.39L223.97 134.287L253.59 128.092Z" fill="black"/>
<path d="M302.203 435.868L320.034 434.849L317.695 489.571L305.613 490.262L302.203 435.868Z" fill="#FFB6B6"/>
<path d="M319.24 472.269L313.049 475.093L313.057 478.846C313.057 478.846 311.563 474.503 303.545 473.555L302.588 477.194C302.588 477.194 299.479 480.763 300.012 487.219L302.053 504.508L308.1 504.369L309.076 492.338C309.076 492.338 310.742 489.608 318.414 502.58C318.414 502.58 326.866 504.71 339.954 500.322C341.753 499.719 343.003 498.039 342.979 496.142C342.966 495.095 342.557 494.128 341.244 493.781C337.902 492.897 334.639 494.017 332.481 491.35C330.323 488.683 319.24 472.269 319.24 472.269Z" fill="#2F2E41"/>
<path d="M206.506 435.868L224.337 434.849L221.998 489.571L209.916 490.262L206.506 435.868Z" fill="#FFB6B6"/>
<path d="M223.543 472.269L217.352 475.093L217.36 478.846C217.36 478.846 215.866 474.503 207.848 473.555L206.891 477.194C206.891 477.194 203.782 480.763 204.315 487.219L206.356 504.508L212.403 504.369L213.379 492.338C213.379 492.338 215.045 489.608 222.717 502.58C222.717 502.58 231.169 504.71 244.257 500.322C246.056 499.719 247.306 498.039 247.282 496.142C247.269 495.095 246.86 494.128 245.547 493.781C242.205 492.897 238.942 494.017 236.784 491.35C234.626 488.683 223.543 472.269 223.543 472.269Z" fill="#2F2E41"/>
<path d="M238.953 120.369C250.612 120.369 260.063 110.918 260.063 99.2598C260.063 87.6012 250.612 78.1501 238.953 78.1501C227.294 78.1501 217.843 87.6012 217.843 99.2598C217.843 110.918 227.294 120.369 238.953 120.369Z" fill="#FFB6B6"/>
<path d="M226.982 102.769C226.982 102.769 236.263 87.5827 245.554 89.2588C254.844 90.935 259.687 92.4483 259.687 92.4483C259.687 92.4483 263.471 80.3404 250.769 74.5313C250.769 74.5313 268.744 59.4814 249.587 49.8228C230.429 40.1643 218.508 49.525 218.508 49.525C218.508 49.525 202.651 62.9722 220.232 75.4171C220.232 75.4171 205.016 92.7495 220.384 109.306C220.384 109.306 217.671 96.6991 221.362 99.2836C225.052 101.868 226.982 102.769 226.982 102.769Z" fill="#2F2E41"/>
<path d="M224.74 129.5L253.59 125.981L275.755 143.925C275.755 143.925 286.779 174.639 278.57 193.18C278.373 193.625 278.218 224.493 278.218 224.493H216.922C216.922 224.493 216.982 203.482 214.64 195.873C214.305 194.786 213.922 193.972 213.482 193.532C209.963 190.014 201.52 167.497 205.742 157.646C209.963 147.795 224.74 129.5 224.74 129.5Z" fill="#308FA2"/>
<path d="M278.57 223.086L317.271 346.225L325.715 443.329H302.142L282.088 353.262L254.471 301.125L227.203 450.366H203.409L203.982 248.417L216.972 223.086H278.57Z" fill="#2F2E41"/>
<path d="M454.335 152.548L450.683 129.72L475.337 119.676L478.989 154.374L454.335 152.548Z" fill="#A0616A"/>
<path opacity="0.1" d="M454.64 147.985L450.987 125.157L475.641 115.112L479.294 149.811L454.64 147.985Z" fill="black"/>
<path d="M346.531 252.357C342.408 257.297 341.614 263.428 344.758 266.051C347.903 268.675 353.793 266.797 357.916 261.855C359.591 259.903 360.774 257.579 361.366 255.077L378.571 233.927L370.19 227.145L352.584 247.749C350.228 248.78 348.152 250.36 346.531 252.357Z" fill="#A0616A"/>
<path d="M421.724 147.82L427.712 171.539L398.404 218.454L368.484 248.525L358.787 240.479L388.961 202.935L411.833 154.56L421.724 147.82Z" fill="#FF6884"/>
<path d="M443.682 450.229L438.203 473.057L454.64 477.622L458.292 452.968L443.682 450.229Z" fill="#A0616A"/>
<path d="M417.202 376.266L434.551 390.876L445.508 408.225L429.985 418.269L403.505 388.136L417.202 376.266Z" fill="#A0616A"/>
<path d="M422.68 225.6L408.07 274.909C408.07 274.909 343.239 331.523 349.63 343.393C356.022 355.264 398.939 388.136 398.939 388.136C398.939 388.136 395.754 398.648 405.108 394.305C414.462 389.962 424.507 378.092 424.507 378.092C424.507 378.092 424.507 368.961 419.941 370.787C415.375 372.613 394.373 347.959 394.373 347.959L443.397 306.616L440.03 446.407C440.03 446.407 429.072 455.988 440.03 456.761C450.987 457.534 457.379 459.36 457.379 459.36C457.379 459.36 470.163 454.794 465.597 450.229L482.946 375.353L499.746 296.901C501.708 287.739 501.03 278.208 497.791 269.416L485.686 236.558L422.68 225.6Z" fill="#2F2E41"/>
<path d="M451.9 470.317C451.9 470.317 450.987 466.665 447.335 466.665H436.179C436.179 466.665 432.725 482.188 433.638 482.188C434.551 482.188 419.028 502.277 435.464 503.19C451.9 504.103 456.466 502.277 456.466 502.277L458.292 495.069C458.292 495.069 461.031 490.406 460.118 486.754C459.205 483.101 451.9 470.317 451.9 470.317Z" fill="#2F2E41"/>
<path d="M429.072 410.964C429.072 410.964 418.584 410.799 421.089 413.621C423.593 416.443 428.159 421.009 428.159 421.009C428.159 421.009 439.02 442.924 444.09 438.815C449.161 434.706 457.379 389.049 454.64 383.571C451.9 378.092 448.248 378.092 448.248 378.092L431.401 388.223C431.401 388.223 441.856 413.704 429.072 410.964Z" fill="#2F2E41"/>
<path d="M480.664 144.789L451.444 137.484L420.397 147.528C420.397 147.528 406.701 185.879 411.266 199.576C415.832 213.273 419.655 234.479 419.655 234.479C419.655 234.479 416.288 228.34 442.769 236.558C469.25 244.776 488.425 243.863 488.425 243.863L489.338 210.99L500.809 181.791C505.712 169.311 500.428 155.141 488.55 148.919L480.664 144.789Z" fill="#FF6884"/>
<path d="M464.144 134.174C477.767 134.174 488.811 123.13 488.811 109.507C488.811 95.8832 477.767 84.8392 464.144 84.8392C450.52 84.8392 439.476 95.8832 439.476 109.507C439.476 123.13 450.52 134.174 464.144 134.174Z" fill="#A0616A"/>
<path d="M484.068 125.635C484.068 125.635 480.273 129.43 476.478 131.328C475.387 131.873 475.472 131.087 476.146 129.69C479.567 122.595 478.252 114.127 472.683 108.558L473.631 102.865L441.374 100.019C441.374 100.019 437.579 84.8392 457.503 81.993C460.889 81.5092 445.169 81.0442 448.964 73.4542C452.759 65.8642 455.605 67.7617 457.503 62.0693C459.4 56.3768 459.4 51.633 466.041 52.5818C472.683 53.5305 472.683 57.3255 479.324 53.5305C485.965 49.7355 502.094 53.5305 499.248 59.223C496.401 64.9155 491.658 69.6592 495.453 73.4542C499.248 77.2492 507.786 83.8905 501.145 88.6342C494.504 93.378 492.606 96.2242 493.555 98.1217C494.504 100.019 487.863 96.2242 487.863 96.2242C487.863 96.2242 494.504 109.507 491.658 114.25C488.811 118.994 484.068 125.635 484.068 125.635Z" fill="#2F2E41"/>
<path d="M623.059 209.72H572.384V274.411H623.059V209.72Z" fill="#FFB6B6"/>
<path d="M575.619 93.2756C573.051 88.4538 571.85 86.3534 572.384 83.5719C573.323 78.6859 578.783 76.0297 581.01 74.9464C588.162 71.4669 597.435 71.6748 604.73 76.0246C609.113 78.6379 611.453 81.9536 613.355 84.6501C615.061 87.0667 620.364 94.5811 619.825 104.057C619.42 111.171 616.166 111.613 616.59 115.917C617.655 126.723 638.42 126.568 643.545 138.559C648.166 149.373 638.905 167.337 625.215 174.139C604.375 184.496 581.815 164.739 577.775 161.201C568.042 152.677 561.605 140.946 563.759 138.559C565.02 137.162 568.341 139.952 573.463 138.559C579.302 136.971 582.401 131.328 583.166 129.934C587.587 121.882 584.994 113.072 584.244 110.527C583.548 108.162 580.905 103.2 575.619 93.2756Z" fill="#2F2E41"/>
<path d="M548.481 494.441L533.704 494.44L526.675 437.445L548.484 437.447L548.481 494.441Z" fill="#FFB6B6"/>
<path d="M497.855 494.106C497.395 494.881 497.152 497.382 497.152 498.283C497.152 501.053 499.398 503.298 502.168 503.298H547.928C549.817 503.298 551.349 501.767 551.349 499.877V497.972C551.349 497.972 553.613 492.246 548.952 485.188C548.952 485.188 543.16 490.715 534.504 482.059L531.952 477.435L513.476 490.948L503.235 492.208C500.994 492.484 499.008 492.165 497.855 494.106Z" fill="#2F2E41"/>
<path d="M633.657 494.441L618.881 494.44L611.852 437.445L633.66 437.447L633.657 494.441Z" fill="#FFB6B6"/>
<path d="M583.032 494.106C582.572 494.881 582.329 497.382 582.329 498.283C582.329 501.053 584.574 503.298 587.344 503.298H633.105C634.994 503.298 636.526 501.767 636.526 499.877V497.972C636.526 497.972 638.79 492.246 634.129 485.188C634.129 485.188 628.337 490.715 619.681 482.059L617.129 477.435L598.653 490.948L588.412 492.208C586.171 492.484 584.184 492.165 583.032 494.106Z" fill="#2F2E41"/>
<path d="M586.401 116.996L587.479 150.419L626.294 155.81L606.347 110.433L586.401 116.996Z" fill="#FFB6B6"/>
<path d="M597.183 127.778C609.687 127.778 619.825 117.64 619.825 105.136C619.825 92.6309 609.687 82.4938 597.183 82.4938C584.678 82.4938 574.541 92.6309 574.541 105.136C574.541 117.64 584.678 127.778 597.183 127.778Z" fill="#FFB6B6"/>
<path d="M623.059 248.534C623.059 248.534 647.318 274.95 632.224 298.67L634.38 375.221C634.38 375.221 643.363 430.676 632.941 467.1L614.973 465.789L602.034 370.908L589.096 308.374L558.907 369.83C558.907 369.83 561.063 414.036 550.282 461.476H526.562L528.718 351.501L568.072 236.674L623.059 248.534Z" fill="#2F2E41"/>
<path d="M587.479 137.481L589.103 136.891L611.199 128.856C611.199 128.856 639.232 150.419 639.232 162.279C639.232 174.139 624.137 217.267 624.137 217.267C624.137 217.267 644.623 238.831 626.294 239.909C607.965 240.987 598.336 223.513 568.146 236.451L565.915 208.641C565.915 208.641 552.977 180.609 559.446 174.139L587.479 137.481Z" fill="#308FA2"/>
<path d="M618.143 304.549C618.282 313.355 622.938 320.421 628.541 320.331C634.145 320.242 638.574 313.033 638.434 304.224C638.427 300.705 637.576 297.238 635.954 294.115L634.896 256.813L620.146 257.27L620.303 294.363C618.78 297.538 618.039 301.03 618.143 304.549Z" fill="#FFB6B6"/>
<path d="M625.865 139.835C634.25 138.466 641.858 144.954 641.83 153.45L637.396 287.073L619.849 286.66L614.332 153.538C614.266 146.749 619.165 140.928 625.865 139.835Z" fill="#308FA2"/>
<path d="M477.16 238.777C470.263 244.253 467.498 252.25 470.984 256.639C474.47 261.027 482.885 260.145 489.784 254.666C492.569 252.515 494.799 249.728 496.287 246.539L525.216 222.967L515.865 211.551L486.552 234.281C483.107 235.008 479.886 236.55 477.16 238.777Z" fill="#FFB6B6"/>
<path d="M612.457 144.515C618.652 150.329 618.144 160.314 611.391 165.47L502.749 243.389L492.383 229.226L594.563 143.722C599.905 139.532 607.506 139.869 612.457 144.515Z" fill="#308FA2"/>
<path d="M586.401 92.1974C583.832 87.3756 582.632 85.2753 583.166 82.4938C584.105 77.6077 589.565 74.9516 591.792 73.8683C598.944 70.3888 608.217 70.5966 615.512 74.9465C619.895 77.5598 622.235 80.8754 624.137 83.5719C625.843 85.9886 631.145 93.503 630.606 102.979C630.202 110.093 626.948 110.535 627.372 114.839C628.437 125.645 649.202 125.49 654.327 137.481C658.948 148.295 649.687 166.258 635.997 173.061C615.156 183.418 592.597 163.661 588.557 160.123C578.824 151.599 572.387 139.867 574.541 137.481C575.802 136.084 579.122 138.874 584.244 137.481C590.084 135.893 593.183 130.25 593.948 128.856C598.369 120.804 595.776 111.994 595.026 109.448C594.33 107.084 591.687 102.122 586.401 92.1974Z" fill="#2F2E41"/>
<path d="M467.453 234.058C461.293 235.918 457.26 240.604 458.444 244.523C459.628 248.443 465.581 250.112 471.743 248.251C474.214 247.542 476.48 246.25 478.35 244.486L504.349 236.276L501.077 226.003L475.043 233.537C472.507 233.102 469.905 233.281 467.453 234.058Z" fill="#A0616A"/>
<path d="M512.623 166.704L485.229 146.615L486.142 184.966L511.71 217.839L484.316 228.796L485.229 244.441C485.229 244.441 519.928 236.101 525.407 235.188C530.885 234.275 535.451 221.491 535.451 221.491L512.623 166.704Z" fill="#FF6884"/>
</g>
<defs>
<clipPath id="clip0_45_134">
<rect width="732" height="503" fill="white" transform="translate(0.835022 0.00292969)"/>
</clipPath>
</defs>
</svg>
